<svg version="1.1" id="Layer_1" xmlns="http://www.w3.org/2000/svg" x="0" y="0" viewBox="0 0 292 78.5" xml:space="preserve"><style>.st0{fill:#41566b}.st1{fill:#29ace2}</style><path class="st0" d="M99.9 39c-.2.2-.4.2-.6.2h-7.2V65c0 .2-.1.4-.3.6-.2.2-.4.3-.6.3h-5.8c-.2 0-.4-.1-.6-.3s-.3-.4-.3-.6V39.2h-7.2c-.2 0-.4-.1-.6-.2s-.3-.4-.3-.6v-4.6c0-.2.1-.4.3-.6.2-.2.4-.2.6-.2h21.9c.2 0 .4.1.6.2.2.2.3.4.3.6v4.6c.1.2 0 .4-.2.6zM122.4 54.4c0 .7-.3 1.1-.9 1.1h-14.1v.1c0 .6.1 1.2.2 1.8.1.6.4 1.1.8 1.5.4.4.8.8 1.4 1.1.6.3 1.3.4 2.2.4h2.3c.8 0 1.6-.1 2.4-.1.8 0 1.5-.1 2.2-.1.7 0 1.2-.1 1.7-.2h.1c.6 0 .8.2.8.7V64c0 .4-.1.6-.2.8-.1.2-.4.3-.8.4-1.4.4-2.8.6-4.2.8-1.4.2-3 .3-4.9.3-1.3 0-2.7-.2-4-.6-1.3-.4-2.5-1-3.6-1.9-1.1-.9-1.9-2.1-2.6-3.5-.6-1.5-1-3.2-1-5.4v-3.1c0-1.8.2-3.4.8-4.8.5-1.4 1.2-2.7 2.2-3.7 1-1 2.1-1.8 3.5-2.3 1.4-.5 3-.8 4.7-.8 1.8 0 3.4.3 4.8.9s2.5 1.4 3.4 2.4c.9 1 1.6 2.3 2.1 3.7.5 1.4.7 3 .7 4.6v2.6zm-6.9-3.6c0-1.7-.4-2.9-1.1-3.7s-1.7-1.2-2.9-1.2-2.2.4-3 1.2c-.7.8-1.1 2-1.1 3.7v.2h8v-.2zM160.2 65.6c-.2.2-.4.3-.6.3h-5.4c-.2 0-.4-.1-.6-.3s-.3-.4-.3-.6V49.8c0-1.4-.2-2.4-.6-2.9-.4-.5-1.1-.8-2.1-.8-.4 0-.9.1-1.5.2s-1.2.3-1.9.6c.1.9.1 1.8.1 2.9v15.1c0 .2-.1.5-.3.6-.2.2-.4.3-.6.3H141c-.2 0-.5-.1-.6-.3-.2-.2-.3-.4-.3-.6V49.8c0-1.4-.2-2.4-.5-2.9s-1-.8-2.1-.8c-.4 0-.9.1-1.5.3-.6.2-1.2.5-1.9.8v17.6c0 .2-.1.5-.3.6s-.4.3-.6.3H128c-.2 0-.5-.1-.6-.3-.2-.2-.3-.4-.3-.6V41.4c0-.2.1-.4.3-.6.2-.2.4-.3.6-.3h5c.2 0 .4.1.6.3.2.2.3.4.3.6v1c.9-.6 1.9-1.1 3-1.6 1.1-.4 2.2-.6 3.5-.6 1.2 0 2.2.2 3 .5.8.3 1.6.9 2.2 1.7.6-.4 1.3-.7 1.8-1 .6-.3 1.1-.5 1.7-.7.6-.2 1.1-.3 1.7-.4.6-.1 1.3-.1 2-.1 1.4 0 2.7.2 3.6.7 1 .5 1.8 1.1 2.3 2 .6.8 1 1.9 1.2 3.1.2 1.2.4 2.5.4 4v15.1c.2.1.1.3-.1.5zM187.7 54.9c0 3.5-.9 6.2-2.7 8.3-1.8 2-4.6 3.1-8.4 3.1-.4 0-1 0-1.7-.1s-1.3-.1-2-.2v7.7c0 .2-.1.4-.3.6s-.4.3-.6.3h-5.4c-.2 0-.5-.1-.6-.3-.2-.2-.3-.4-.3-.6v-31c0-.4.1-.6.2-.8.2-.2.5-.3 1.1-.5 1.3-.3 2.7-.6 4.4-.8 1.7-.2 3.3-.3 5-.3 3.6 0 6.3 1 8.2 3 1.9 2 2.9 4.8 2.9 8.4v3.2zm-7.2-3.4c0-.8-.1-1.5-.2-2.2-.1-.6-.3-1.2-.6-1.7s-.7-.9-1.2-1.1c-.5-.3-1.1-.4-1.9-.4-.7 0-1.4 0-2.1.1-.6 0-1.2.1-1.6.2v13.8c.5.1 1.1.1 1.8.2s1.3.1 1.8.1c.8 0 1.4-.1 1.9-.4.5-.3.9-.7 1.2-1.1.3-.5.5-1.1.6-1.7.1-.7.2-1.4.2-2.1v-3.7zM199.1 65.6c-.2.2-.4.3-.6.3h-5.4c-.2 0-.4-.1-.6-.3-.2-.2-.3-.4-.3-.6V32.8c0-.2.1-.4.3-.6.2-.2.4-.3.6-.3h5.4c.2 0 .4.1.6.3.2.2.2.4.2.6v32.1c.1.3 0 .5-.2.7zM224.2 65c0 .2-.1.4-.3.6-.2.2-.4.3-.6.3h-5c-.2 0-.4-.1-.6-.3s-.3-.4-.3-.6v-.7c-.9.6-1.8 1.1-2.7 1.5s-2.1.5-3.4.5c-1 0-1.9-.1-2.8-.4-.9-.3-1.7-.7-2.4-1.3-.7-.6-1.3-1.4-1.7-2.3-.4-1-.6-2.2-.6-3.6v-.4c0-2.6.9-4.5 2.6-5.7s4.5-1.8 8.3-1.8h2.4v-1.6c0-1.3-.3-2.1-.9-2.5-.6-.4-1.4-.6-2.4-.6h-2.1c-.7 0-1.4 0-2.1.1-.7 0-1.3.1-1.8.1s-1 .1-1.3.1h-.2c-.2 0-.4-.1-.6-.2s-.2-.3-.2-.6V42c0-.5.3-.8.8-1 .8-.2 1.9-.4 3.3-.6 1.4-.2 2.8-.3 4.3-.3 1.6 0 3 .2 4.3.5 1.3.3 2.4.9 3.2 1.6.9.7 1.6 1.7 2.1 2.8.5 1.1.7 2.5.7 4.1V65zm-7-10h-2.5c-.8 0-1.4.1-1.9.2s-.9.3-1.2.6c-.3.3-.5.6-.6 1-.1.4-.2.9-.2 1.4v.4c0 .9.2 1.5.7 1.8.5.3 1.2.4 2.1.4.7 0 1.3-.1 1.9-.3.6-.2 1.2-.4 1.7-.7V55zM242.2 65.9c-.7.1-1.3.2-1.8.3-.5.1-1.1.1-1.7.1-1.2 0-2.3-.1-3.2-.3-.9-.2-1.7-.6-2.3-1.1-.6-.6-1.1-1.3-1.4-2.3-.3-1-.5-2.3-.5-3.8V45.9l-3.5-.6c-.2-.1-.5-.2-.6-.3-.2-.2-.3-.4-.3-.6v-2.9c0-.2.1-.4.3-.6.2-.2.4-.3.6-.3h3.5V37c0-.2.1-.4.3-.6l.6-.3 5.4-.9h.1c.2 0 .4.1.6.2s.2.3.2.6v4.7h3.6c.2 0 .4.1.6.3.2.2.3.4.3.6V45c0 .2-.1.4-.3.6-.2.2-.4.3-.6.3h-3.6v12.9c0 .9.1 1.5.2 1.7.1.2.6.4 1.2.4h2.2c.6 0 .9.2.9.7V65c0 .5-.2.8-.8.9zM268.6 54.4c0 .7-.3 1.1-.9 1.1h-14.1v.1c0 .6.1 1.2.2 1.8.1.6.4 1.1.8 1.5.4.4.8.8 1.4 1.1.6.3 1.3.4 2.2.4h2.3c.8 0 1.6-.1 2.4-.1s1.5-.1 2.2-.1c.7 0 1.2-.1 1.7-.2h.1c.6 0 .8.2.8.7V64c0 .4-.1.6-.2.8-.1.2-.4.3-.8.4-1.4.4-2.8.6-4.2.8-1.4.2-3 .3-4.9.3-1.3 0-2.7-.2-4-.6-1.3-.4-2.5-1-3.6-1.9-1.1-.9-1.9-2.1-2.6-3.5-.6-1.5-1-3.2-1-5.4v-3.1c0-1.8.2-3.4.8-4.8.5-1.4 1.2-2.7 2.2-3.7 1-1 2.1-1.8 3.5-2.3 1.4-.5 3-.8 4.7-.8 1.8 0 3.4.3 4.8.9s2.5 1.4 3.4 2.4c.9 1 1.6 2.3 2.1 3.7.5 1.4.7 3 .7 4.6v2.6zm-7-3.6c0-1.7-.4-2.9-1.1-3.7-.7-.8-1.7-1.2-2.9-1.2s-2.2.4-3 1.2c-.7.8-1.1 2-1.1 3.7v.2h8v-.2zM290.9 58.8c0 1-.2 2-.6 2.9-.4.9-1 1.7-1.7 2.4-.8.7-1.8 1.2-2.9 1.6-1.2.4-2.6.6-4.2.6-.6 0-1.3 0-2-.1-.7 0-1.4-.1-2.1-.2l-2.1-.3c-.7-.1-1.3-.2-1.9-.4-.6-.1-.8-.5-.8-1v-3.6c0-.2.1-.4.2-.6.1-.2.4-.2.6-.2h.2c.6.1 1.2.2 2 .2.7.1 1.4.1 2.1.2.7.1 1.4.1 2 .1h1.4c1.1 0 1.8-.1 2.1-.4.3-.3.5-.7.5-1.3 0-.3-.1-.6-.4-.9-.2-.3-.7-.6-1.3-1l-5.7-3.3c-1.2-.7-2.2-1.6-2.9-2.7s-1-2.4-1-3.8c0-2.2.7-3.9 2.2-5.1 1.5-1.2 3.7-1.7 6.8-1.7 1.7 0 3.2.1 4.4.3 1.2.2 2.4.4 3.5.7.6.1.8.5.8 1v3.6c0 .6-.3.8-.8.8h-.1c-.3 0-.8-.1-1.4-.2-.6-.1-1.2-.1-1.9-.2s-1.4-.1-2.1-.2c-.7 0-1.4-.1-1.9-.1-.9 0-1.5.1-1.8.3s-.5.5-.5 1c0 .3.1.6.4.8.2.2.6.5 1 .7l5.5 3.1c.9.5 1.7 1.1 2.2 1.6.6.5 1 1.1 1.4 1.7s.6 1.2.7 1.7c0 .9.1 1.5.1 2z"/><g><path class="st0" d="M39.4 20.1c-9.9 0-19.2-.8-26.3-2.3C4.9 16.1 1 13.7 1 10.6s4-5.5 12.1-7.2C20.1 1.8 29.5 1 39.4 1s19.2.8 26.3 2.3c8.2 1.7 12.1 4.1 12.1 7.2s-4 5.5-12.1 7.2c-7.1 1.6-16.4 2.4-26.3 2.4zm0-15.6c-22 0-34.6 4-34.9 6.1.3 2.1 12.9 6.1 34.9 6.1s34.6-4 34.9-6.1c-.4-2.1-13-6.1-34.9-6.1z"/></g><g><path class="st1" d="M95.7 23.6c-1.4 1.4-3.3 2-5.2 2-5.1 0-7.3-3.5-7.3-7.1 0-3.6 2.3-7.3 7.3-7.3 1.9 0 3.6.7 5.1 2.1L93.9 15c-.9-.9-2.1-1.3-3.3-1.3-3.3 0-4.8 2.5-4.7 4.8 0 2.3 1.3 4.7 4.7 4.7 1.2 0 2.6-.5 3.5-1.4l1.6 1.8zM96.5 25.3V11.6h9.9v2.5h-7.3v3.8h6.9v2.4h-6.9v5.1h-2.6zM112.2 25.3V11.6h9.9v2.5h-7.3v3.8h6.9v2.4h-6.9v5.1h-2.6zM126.2 15.6v5.1c0 1.5.8 2.6 2.3 2.6 1.5 0 2.5-1.2 2.5-2.7v-5h2.4v9.7h-2.1l-.2-1.3c-1 1-1.9 1.5-3.3 1.5-2.3 0-4-1.8-4-4.8v-5.1h2.4zM142.7 25.3v-5.1c0-1.5-.8-2.6-2.3-2.6-1.5 0-2.5 1.2-2.5 2.7v5h-2.4v-9.7h2.1l.2 1.3c1-1 2-1.5 3.2-1.5 2.3 0 4.1 1.7 4.1 4.8v5.1h-2.4zM154.3 25.3v-5.1c0-1.5-.8-2.6-2.3-2.6-1.5 0-2.5 1.2-2.5 2.7v5h-2.4v-9.7h2.1l.2 1.3c1-1 2-1.5 3.2-1.5 2.3 0 4.1 1.7 4.1 4.8v5.1h-2.4zM160.9 21.3c.2 1.2 1.2 2.1 2.9 2.1.9 0 2-.3 2.6-.9l1.5 1.5c-1 1.1-2.7 1.6-4.2 1.6-3.3 0-5.3-2.1-5.3-5.2 0-3 2-5.1 5.2-5.1 3.3 0 5.3 2 4.9 6h-7.6zm5.2-1.9c-.2-1.3-1.1-1.9-2.5-1.9-1.3 0-2.4.6-2.7 1.9h5.2zM172.7 11.6v13.8h-2.4V11.6h2.4zM181.1 18.2c-.7-.7-1.5-.9-2.4-.9-1.1 0-1.8.4-1.8 1s.6 1 1.8 1.1c1.8.1 4.2.5 4.2 3.1 0 1.7-1.4 3.2-4.2 3.2-1.5 0-3.1-.3-4.5-1.7l1.2-1.7c.7.8 2.3 1.3 3.3 1.4.9 0 1.8-.5 1.8-1.2s-.6-.9-1.9-1c-1.8-.1-4-.8-4-3s2.3-3 4.1-3c1.5 0 2.7.3 3.8 1.3l-1.4 1.4z"/></g><g><path class="st0" d="M68.6 18.3L47 49.1v16.4l-15.8 6.3V49.1L8.7 16.3c.2.1.3.1.5.2l-6.2-6-1.7 1.4 26.4 38.4v26.8L50.8 68V50.3l26.6-38.1c.2-.2.2-.4.3-.4l-.8-.5-8.3 7z"/></g></svg>